<svg width="350" height="266" viewBox="0 0 350 266" fill="none" xmlns="http://www.w3.org/2000/svg">
<g clip-path="url(#clip0_2_140)">
<rect width="350" height="266" fill="white"/>
<rect width="350" height="266" fill="white"/>
<path d="M190.125 93.375L196.375 87.125V105.875H177.625L186.25 97.25C183.083 94.0833 179.333 92.5 175 92.5C170.583 92.5 166.792 94.0833 163.625 97.25C160.542 100.333 159 104.083 159 108.5C159 112.917 160.542 116.708 163.625 119.875C166.792 122.958 170.583 124.5 175 124.5C178.083 124.5 181.083 123.458 184 121.375C187 119.292 189.042 116.792 190.125 113.875H195.625C194.458 118.542 191.958 122.375 188.125 125.375C184.292 128.375 179.917 129.875 175 129.875C169.167 129.875 164.167 127.792 160 123.625C155.833 119.458 153.75 114.417 153.75 108.5C153.75 102.583 155.833 97.5417 160 93.375C164.167 89.2083 169.167 87.125 175 87.125C177.5 87.125 180.208 87.75 183.125 89C186.125 90.1667 188.458 91.625 190.125 93.375Z" fill="#61BB61"/>
<path d="M128.496 176.5V153.524H130.896V176.5H128.496ZM135.006 168.468C135.006 165.545 135.529 163.433 136.574 162.132C137.62 160.831 139.38 160.18 141.854 160.18C144.35 160.18 146.11 160.831 147.134 162.132C148.18 163.433 148.702 165.545 148.702 168.468C148.702 171.391 148.212 173.513 147.23 174.836C146.249 176.159 144.457 176.82 141.854 176.82C139.252 176.82 137.46 176.159 136.478 174.836C135.497 173.513 135.006 171.391 135.006 168.468ZM137.47 168.436C137.47 170.761 137.748 172.393 138.302 173.332C138.878 174.271 140.062 174.74 141.854 174.74C143.668 174.74 144.852 174.281 145.406 173.364C145.961 172.425 146.238 170.783 146.238 168.436C146.238 166.089 145.929 164.479 145.31 163.604C144.692 162.708 143.54 162.26 141.854 162.26C140.19 162.26 139.038 162.708 138.398 163.604C137.78 164.479 137.47 166.089 137.47 168.436ZM163.913 165.332V173.524C163.977 174.313 164.595 174.783 165.769 174.932L165.673 176.82C163.987 176.82 162.718 176.393 161.865 175.54C159.945 176.393 158.025 176.82 156.105 176.82C154.633 176.82 153.513 176.404 152.745 175.572C151.977 174.74 151.593 173.545 151.593 171.988C151.593 170.431 151.987 169.289 152.777 168.564C153.566 167.817 154.803 167.359 156.489 167.188L161.513 166.708V165.332C161.513 164.244 161.278 163.465 160.809 162.996C160.339 162.527 159.699 162.292 158.889 162.292C157.182 162.292 155.411 162.399 153.577 162.612L152.585 162.708L152.489 160.884C154.835 160.415 156.915 160.18 158.729 160.18C160.542 160.18 161.854 160.596 162.665 161.428C163.497 162.26 163.913 163.561 163.913 165.332ZM154.057 171.86C154.057 173.823 154.867 174.804 156.489 174.804C157.939 174.804 159.369 174.559 160.777 174.068L161.513 173.812V168.532L156.777 168.98C155.817 169.065 155.123 169.343 154.697 169.812C154.27 170.281 154.057 170.964 154.057 171.86ZM180.936 153.524V176.5H178.568V175.412C176.925 176.351 175.304 176.82 173.704 176.82C172.85 176.82 172.104 176.713 171.464 176.5C170.824 176.287 170.226 175.903 169.672 175.348C168.52 174.196 167.944 172.073 167.944 168.98C167.944 165.865 168.456 163.625 169.48 162.26C170.525 160.873 172.242 160.18 174.632 160.18C175.869 160.18 177.181 160.319 178.568 160.596V153.524H180.936ZM171.528 173.62C171.869 174.025 172.232 174.303 172.616 174.452C173 174.601 173.49 174.676 174.088 174.676C174.706 174.676 175.389 174.58 176.136 174.388C176.904 174.175 177.501 173.972 177.928 173.78L178.568 173.492V162.644C177.202 162.388 175.933 162.26 174.76 162.26C173.138 162.26 172.008 162.783 171.368 163.828C170.728 164.852 170.408 166.452 170.408 168.628C170.408 171.103 170.781 172.767 171.528 173.62ZM185.585 176.5V160.5H187.985V176.5H185.585ZM185.585 156.884V154.1H187.985V156.884H185.585ZM194.985 176.5H192.585V160.5H194.953V161.62C196.681 160.66 198.335 160.18 199.913 160.18C202.047 160.18 203.476 160.756 204.201 161.908C204.948 163.06 205.321 165.108 205.321 168.052V176.5H202.953V168.116C202.953 165.897 202.729 164.383 202.281 163.572C201.855 162.74 200.927 162.324 199.497 162.324C198.815 162.324 198.089 162.431 197.321 162.644C196.575 162.836 195.999 163.028 195.593 163.22L194.985 163.508V176.5ZM215.949 184.02C213.389 184.02 211.597 183.668 210.573 182.964C209.57 182.281 209.069 181.023 209.069 179.188C209.069 178.313 209.261 177.599 209.645 177.044C210.029 176.511 210.679 175.903 211.597 175.22C210.999 174.815 210.701 174.079 210.701 173.012C210.701 172.649 210.967 171.977 211.501 170.996L211.789 170.484C210.103 169.716 209.261 168.105 209.261 165.652C209.261 162.004 211.255 160.18 215.245 160.18C216.269 160.18 217.218 160.287 218.093 160.5L218.573 160.596L223.309 160.468V162.516L220.269 162.452C220.973 163.156 221.325 164.223 221.325 165.652C221.325 167.657 220.823 169.065 219.821 169.876C218.839 170.665 217.282 171.06 215.149 171.06C214.573 171.06 214.05 171.017 213.581 170.932C213.197 171.871 213.005 172.479 213.005 172.756C213.005 173.417 213.207 173.833 213.613 174.004C214.018 174.153 215.245 174.228 217.293 174.228C219.341 174.228 220.813 174.548 221.709 175.188C222.605 175.828 223.053 177.076 223.053 178.932C223.053 182.324 220.685 184.02 215.949 184.02ZM211.437 178.996C211.437 180.127 211.746 180.905 212.365 181.332C213.005 181.78 214.167 182.004 215.853 182.004C217.559 182.004 218.775 181.769 219.501 181.3C220.247 180.831 220.621 180.041 220.621 178.932C220.621 177.844 220.354 177.14 219.821 176.82C219.287 176.5 218.242 176.34 216.685 176.34L213.229 176.18C212.525 176.692 212.045 177.14 211.789 177.524C211.554 177.908 211.437 178.399 211.437 178.996ZM211.661 165.652C211.661 166.911 211.938 167.807 212.493 168.34C213.069 168.873 214.007 169.14 215.309 169.14C216.61 169.14 217.538 168.873 218.093 168.34C218.647 167.807 218.925 166.911 218.925 165.652C218.925 164.372 218.647 163.465 218.093 162.932C217.538 162.399 216.61 162.132 215.309 162.132C214.007 162.132 213.069 162.409 212.493 162.964C211.938 163.497 211.661 164.393 211.661 165.652Z" fill="#61BB61"/>
</g>
<defs>
<clipPath id="clip0_2_140">
<rect width="350" height="266" fill="white"/>
</clipPath>
</defs>
</svg>
